<?xml version="1.0" encoding="UTF-8" standalone="no"?>
<!DOCTYPE svg PUBLIC "-//W3C//DTD SVG 1.1//EN" "http://www.w3.org/Graphics/SVG/1.1/DTD/svg11.dtd">
<svg width="100%" height="100%" viewBox="0 0 32 32" version="1.1" xmlns="http://www.w3.org/2000/svg" xmlns:xlink="http://www.w3.org/1999/xlink" xml:space="preserve" xmlns:serif="http://www.serif.com/" style="fill-rule:evenodd;clip-rule:evenodd;stroke-linejoin:round;stroke-miterlimit:2;">
    <g transform="matrix(1.205086,0,0,1.205086,-6.420511,-3.281373)">
        <g transform="matrix(0.937349,0,0,0.937349,0.675768,1.002418)">
            <circle cx="10" cy="16" r="4" style="fill:rgb(250,250,249);"/>
        </g>
        <g transform="matrix(0.937349,0,0,0.937349,0.675768,1.002418)">
            <path d="M14.592,12.877L23.885,6.023L21.375,3.237L13.588,11.763L14.592,12.877Z" style="fill:rgb(250,250,249);fill-rule:nonzero;"/>
        </g>
        <g transform="matrix(0.937349,0,0,0.937349,0.675768,1.002418)">
            <circle cx="14.09" cy="12.32" r="0.75" style="fill:rgb(250,250,249);"/>
        </g>
        <g transform="matrix(0.937349,0,0,0.937349,0.675768,1.002418)">
            <circle cx="22.63" cy="4.63" r="1.875" style="fill:rgb(250,250,249);"/>
        </g>
        <g transform="matrix(0.937349,0,0,0.937349,0.675768,1.002418)">
            <path d="M15.521,15.398L30.834,12.739L29.926,9.101L15.159,13.942L15.521,15.398Z" style="fill:rgb(250,250,249);fill-rule:nonzero;"/>
        </g>
        <g transform="matrix(0.937349,0,0,0.937349,0.675768,1.002418)">
            <circle cx="15.34" cy="14.67" r="0.75" style="fill:rgb(250,250,249);"/>
        </g>
        <g transform="matrix(0.937349,0,0,0.937349,0.675768,1.002418)">
            <circle cx="30.38" cy="10.92" r="1.875" style="fill:rgb(250,250,249);"/>
        </g>
        <g transform="matrix(0.937349,0,0,0.937349,0.675768,1.002418)">
            <path d="M15.159,18.058L29.926,22.899L30.834,19.261L15.521,16.602L15.159,18.058Z" style="fill:rgb(250,250,249);fill-rule:nonzero;"/>
        </g>
        <g transform="matrix(0.937349,0,0,0.937349,0.675768,1.002418)">
            <circle cx="15.34" cy="17.33" r="0.75" style="fill:rgb(250,250,249);"/>
        </g>
        <g transform="matrix(0.937349,0,0,0.937349,0.675768,1.002418)">
            <circle cx="30.38" cy="21.08" r="1.875" style="fill:rgb(250,250,249);"/>
        </g>
        <g transform="matrix(0.937349,0,0,0.937349,0.675768,1.002418)">
            <path d="M13.588,20.237L21.375,28.763L23.885,25.977L14.592,19.123L13.588,20.237Z" style="fill:rgb(250,250,249);fill-rule:nonzero;"/>
        </g>
        <g transform="matrix(0.937349,0,0,0.937349,0.675768,1.002418)">
            <circle cx="14.09" cy="19.68" r="0.75" style="fill:rgb(250,250,249);"/>
        </g>
        <g transform="matrix(0.937349,0,0,0.937349,0.675768,1.002418)">
            <circle cx="22.63" cy="27.37" r="1.875" style="fill:rgb(250,250,249);"/>
        </g>
    </g>
</svg>
